<svg version="1.2" xmlns="http://www.w3.org/2000/svg" xmlns:xlink="http://www.w3.org/1999/xlink" overflow="visible" preserveAspectRatio="none" viewBox="0 0 1280.666748046875 584.6666870117188" height="127.96713615023475" width="281" id="svg3713_1563789789840"><g transform="translate(1, 1)"><defs/><text transform="scale(1.0134291,0.98674886)" id="text4609_1563789789840" y="195.00377" x="534.4671" style="font-style:normal;font-weight:normal;font-size:96.88023376px;line-height:1.25;font-family:sans-serif;letter-spacing:0px;word-spacing:0px;fill:#0076bf;fill-opacity:1;stroke:none;stroke-width:1.0091691" xml:space="preserve" vector-effect="non-scaling-stroke"><tspan style="font-style:normal;font-variant:normal;font-weight:normal;font-stretch:normal;font-size:107.6446991px;font-family:Arial;-inkscape-font-specification:Arial;stroke-width:1.0091691" y="195.00377" x="534.4671" id="tspan4607_1563789789840" vector-effect="non-scaling-stroke">Karvinsk&#225;</tspan><tspan style="font-style:normal;font-variant:normal;font-weight:normal;font-stretch:normal;font-size:107.6446991px;font-family:Arial;-inkscape-font-specification:Arial;stroke-width:1.0091691" id="tspan4611_1563789789840" y="329.55966" x="534.4671" vector-effect="non-scaling-stroke">hornick&#225;</tspan><tspan style="font-style:normal;font-variant:normal;font-weight:normal;font-stretch:normal;font-size:107.6446991px;font-family:Arial;-inkscape-font-specification:Arial;stroke-width:1.0091691" id="tspan4613_1563789789840" y="464.11554" x="534.4671" vector-effect="non-scaling-stroke">nemocnice a.s.</tspan></text><g id="g4605_1563789789840" transform="translate(567.61749,33.208015)"><g transform="translate(-550.58738,-31.876112)" id="g4579_1563789789840"><circle id="path3725_1563789789840" cx="202.26646" cy="76.112747" style="fill:#bac9de;fill-opacity:1;stroke-width:1.11549258" r="45" vector-effect="non-scaling-stroke"/><circle id="path3725-6_1563789789840" cx="202.32452" cy="87.837524" style="fill:#0076bf;fill-opacity:1;stroke-width:0.61971813" r="25" vector-effect="non-scaling-stroke"/></g><path id="path4581_1563789789840" d="m -525.0125,227.48586 118.03653,-110.79847 36.92649,39.46625 -47.38484,43.79896 69.59918,70.5574 69.47453,-66.18873 -45.07963,-47.1287 37.66994,-37.90787 47.00441,47.85316 4.97265,-5.22878 22.08969,23.52041 -4.20784,4.70571 14.39106,15.21061 30.73611,67.61944 -68.70152,-29.24965 -15.31052,-14.80544 -64.78376,66.35697 67.25721,66.53277 c 0,0 -7.80078,13.11879 -12.29444,17.48344 -5.08523,4.93925 -17.54143,12.95258 -17.54143,12.95258 l -64.84591,-69.06835 -65.57037,67.61944 c 0,0 -11.71954,-6.41643 -17.44589,-11.80375 -5.67207,-5.33625 -12.26568,-17.90783 -12.26568,-17.90783 l 67.31936,-68.3439 -66.35698,-69.73066 -45.59447,43.88908 z" style="fill:#b8c8dd;fill-opacity:1;stroke:#bac9de;stroke-width:1px;stroke-linecap:butt;stroke-linejoin:miter;stroke-opacity:1" vector-effect="non-scaling-stroke"/><path id="path3742_1563789789840" d="m -271.26953,86.367188 c -15.87477,-0.0089 -31.71663,3.080007 -46.30859,10.460937 -10.8506,5.488475 -20.10082,12.578105 -29.1336,22.462305 -10.25846,-11.29128 -15.6933,-13.61659 -24.58125,-18.6127 -10.83798,-6.092266 -22.11873,-9.175068 -35.0918,-10.757808 -13.58641,-1.65757 -29.42056,-0.957642 -42.77343,2.048828 -10.76511,2.42382 -20.13209,6.136163 -29.45508,12.03906 -8.26881,5.23544 -17.00518,12.23601 -23.3086,19.72266 -5.6433,6.70262 -11.48028,15.26027 -14.6236,24.12221 -3.35633,9.46249 -4.2131,19.79971 -4.10528,29.83924 0.0945,8.80339 1.59547,17.66004 4.1609,26.08187 3.46908,11.38834 7.44736,21.70698 14.9915,32.41626 7.54414,10.70928 12.38461,15.75721 20.58039,23.29042 10.15825,9.33704 21.43686,17.53929 33.29688,24.58984 14.57769,8.66616 46.10351,21.51367 46.10351,21.51367 l 42.51953,19.4668 c 0,0 19.31432,10.74226 24.84171,15.10455 6.07227,4.79232 12.74078,8.70336 15.00024,15.53887 2.35546,7.12593 0.60463,15.69232 -2.9027,22.3275 -3.43107,6.49093 -16.44901,14.64822 -16.44901,14.64822 v 21.00391 c 0,0 15.20087,-9.95709 21.51562,-16.39258 5.26248,-5.3631 10.1113,-10.24249 13.13724,-17.82332 2.35582,-5.90199 3.84196,-13.46705 3.14898,-19.78394 -0.82992,-7.56507 -2.69609,-14.37001 -7.27352,-20.09835 -6.72908,-8.42097 -18.05964,-15.0765 -26.94239,-21.18306 -12.97077,-8.91692 -41.49414,-22.54102 -41.49414,-22.54102 0,0 -31.90282,-14.62357 -46.61718,-24.07617 -11.86962,-7.62512 -33.29688,-26.125 -33.29688,-26.125 0,0 -10.92569,-11.23666 -14.85547,-17.92969 -4.54375,-7.73872 -9.11728,-14.91821 -12.28147,-23.90851 -3.1133,-8.84572 -4.38088,-13.8723 -5.45657,-26.69195 0.16171,-9.6452 0.57155,-15.55164 4.551,-25.80241 3.73445,-9.61967 8.07553,-15.61556 14.37924,-21.6507 6.69467,-6.40943 17.55394,-13.61169 25.95819,-17.20815 8.71943,-3.73134 18.22229,-5.741 27.66211,-6.6582 7.99515,-0.77683 16.23663,-0.72801 24.07617,1.02344 8.40292,1.87732 16.45788,5.52602 23.82032,9.99023 5.59946,3.39523 15.11328,12.55078 15.11328,12.55078 -4.28195,4.95441 -12.94196,16.5328 -15.81641,33.16797 -1.95999,11.34291 -2.23126,21.07501 -1.60156,27.79102 1.08554,11.57769 3.08358,19.36181 7.93945,27.61899 2.45361,4.17225 5.75989,7.87586 10.2461,10.28921 4.23468,2.27804 6.72244,2.15685 9.80912,1.02539 5.44368,-1.99544 9.09421,-7.56201 12.03239,-12.56026 4.6618,-7.93035 6.97469,-16.99037 8.12724,-26.37333 0.85457,-6.95704 0.63687,-15.45342 -0.51367,-23.05274 -1.11654,-7.3747 -3.28356,-14.62625 -6.14649,-21.51367 -2.55278,-6.14129 -9.73242,-17.41797 -9.73242,-17.41797 0,0 15.28433,-13.39682 24.07617,-17.41601 9.91258,-4.53153 23.43366,-10.14877 33.9707,-11.244142 10.4839,-1.089849 22.57573,-0.291312 31.62305,2.314452 11.12271,3.20351 16.88796,5.41942 30.625,14.50195 26.67912,17.63944 37.9347,33.66864 68.8457,43.66631 23.69235,6.30294 34.19554,6.28486 49.50879,5.45411 15.313237,-0.83075 34.639471,-5.4721 45.145511,-10.12628 10.50604,-4.65418 22.039062,-15.49218 22.039062,-15.49218 0,0 -19.697811,18.5778 -63.431641,14.42773 -24.943032,-2.36693 -33.166552,-3.39083 -64.308542,-21.18265 -24.2313,-13.84366 -51.20021,-36.426614 -78.10161,-42.889614 -10.50343,-2.523422 -21.38051,-3.980222 -32.24219,-3.986328 z m -74.69628,58.296402 c 9.39181,12.60175 10.65603,24.09812 10.74958,37.15451 0.0729,10.17592 -3.79943,28.66187 -11.26579,28.37382 -9.12819,-0.35216 -10.83236,-20.26715 -10.90296,-31.32207 -0.0768,-12.02041 1.35174,-22.7426 11.41917,-34.20626 z" style="fill:#0076bf;fill-opacity:1;stroke:#0076bf;stroke-width:1px;stroke-linecap:butt;stroke-linejoin:miter;stroke-opacity:1" vector-effect="non-scaling-stroke"/><path id="path3746_1563789789840" d="m -361.32236,227.2027 c 0,0 7.11267,6.9531 13.73048,6.87169 7.70101,-0.0947 12.89993,-3.84201 12.89993,-3.84201 l -4.32853,81.19455 c 0,0 -7.34252,-4.61042 -10.62957,-6.65949 -3.28706,-2.04907 -9.60504,-4.39822 -9.60504,-4.39822 z" style="fill:#0076bf;fill-opacity:1;stroke:#0076bf;stroke-width:1px;stroke-linecap:butt;stroke-linejoin:miter;stroke-opacity:1" vector-effect="non-scaling-stroke"/><path id="path3748_1563789789840" d="m -358.99896,329.23223 c 0,0 6.19454,3.41389 9.73311,5.70998 3.4349,2.22882 8.9647,5.72284 8.9647,5.72284 l -4.61042,176.64475 c 0,0 -1.47892,2.31458 -6.14722,2.30521 -6.9971,-0.014 -7.4279,-2.30521 -7.4279,-2.30521 z" style="fill:#0076bf;fill-opacity:1;stroke:#0076bf;stroke-width:1px;stroke-linecap:butt;stroke-linejoin:miter;stroke-opacity:1" vector-effect="non-scaling-stroke"/><path id="path3750_1563789789840" d="m -393.19424,471.33747 c -1.27599,-6.79742 -1.96492,-14.73124 -0.25614,-23.52479 1.6824,-8.65775 5.37883,-15.23685 10.62958,-22.32323 5.25075,-7.08639 20.61881,-18.69781 20.61881,-18.69781 v 19.72234 c 0,0 -14.68402,11.94346 -19.4662,23.56435 -6.49653,15.78683 -4.65437,40.73067 -4.65437,40.73067 0,0 -5.79501,-13.73595 -6.87168,-19.47153 z" style="fill:#0076bf;fill-opacity:1;stroke:#0076bf;stroke-width:1px;stroke-linecap:butt;stroke-linejoin:miter;stroke-opacity:1" vector-effect="non-scaling-stroke"/></g></g></svg>